<svg xmlns="http://www.w3.org/2000/svg" width="149" height="200" viewBox="0 0 149 200">
    <g fill="none" fill-rule="evenodd">
        <g>
            <g>
                <g>
                    <g>
                        <path fill="#4671C6" d="M103.44 194.048H10.423c-4.871 0-8.82-3.948-8.82-8.82V10.424c0-4.871 3.949-8.82 8.82-8.82h93.015c4.872 0 8.82 3.949 8.82 8.82v174.804c0 4.872-3.948 8.82-8.82 8.82z" transform="translate(-106 -135) translate(22 135) translate(84) translate(.207)"/>
                        <path fill="#A4C9FF" d="M100.528 9.856H86.126v1.556c0 3.441-2.788 6.229-6.229 6.229H33.966c-3.44 0-6.229-2.788-6.229-6.229V9.856H13.335c-2.579 0-4.67 2.09-4.67 4.671v166.598c0 2.578 2.091 4.67 4.67 4.67h87.193c2.58 0 4.671-2.092 4.671-4.67V14.527c0-2.58-2.092-4.67-4.67-4.67z" transform="translate(-106 -135) translate(22 135) translate(84) translate(.207)"/>
                        <path fill="#3762CC" d="M103.44 195.652H10.423C4.677 195.652 0 190.977 0 185.228V10.424C0 4.675 4.677 0 10.424 0h93.015c5.749 0 10.424 4.675 10.424 10.424v174.804c0 5.749-4.675 10.424-10.424 10.424zM10.423 3.207c-3.978 0-7.217 3.237-7.217 7.217v174.804c0 3.98 3.239 7.217 7.217 7.217h93.015c3.98 0 7.217-3.237 7.217-7.217V10.424c0-3.98-3.237-7.217-7.217-7.217H10.424z" transform="translate(-106 -135) translate(22 135) translate(84) translate(.207)"/>
                        <path fill="#E0EBFC" d="M78.865 10.439c0 1.616-1.309 2.927-2.925 2.927-1.616 0-2.925-1.31-2.925-2.927 0-1.616 1.309-2.926 2.925-2.926 1.616 0 2.925 1.31 2.925 2.926zM68.71 10.439c0 1.167-.945 2.115-2.112 2.115-1.168 0-2.114-.948-2.114-2.115 0-1.167.946-2.114 2.114-2.114 1.167 0 2.113.947 2.113 2.114zM57.932 12.554H35.69c-1.166 0-2.113-.946-2.113-2.113s.947-2.116 2.113-2.116h22.242c1.167 0 2.113.949 2.113 2.116 0 1.165-.946 2.113-2.113 2.113z" transform="translate(-106 -135) translate(22 135) translate(84) translate(.207)"/>
                        <path fill="#6BDDDD" d="M67.46 108.14L46.418 87.097l13.391-13.391c5.811-5.811 15.231-5.811 21.042 0 5.812 5.811 5.812 15.233 0 21.042L67.46 108.14z" transform="translate(-106 -135) translate(22 135) translate(84) translate(.207)"/>
                        <path fill="#E0EBFC" d="M33.012 121.545c-5.812-5.81-5.812-15.233 0-21.042l13.406-13.406L67.46 108.14l-13.406 13.405c-5.811 5.812-15.23 5.812-21.042 0z" transform="translate(-106 -135) translate(22 135) translate(84) translate(.207)"/>
                        <path fill="#3762CC" d="M43.534 127.499c-4.222 0-8.443-1.608-11.656-4.82-3.114-3.113-4.828-7.254-4.828-11.655 0-4.403 1.714-8.541 4.828-11.655l13.406-13.406c.601-.6 1.666-.6 2.267 0l21.043 21.043c.626.626.626 1.64 0 2.267L55.188 122.68c-3.212 3.212-7.434 4.82-11.654 4.82zm-9.388-7.087c5.176 5.174 13.6 5.174 18.774 0l12.272-12.272-18.774-18.775-12.272 12.272c-2.506 2.508-3.889 5.84-3.889 9.387 0 3.545 1.383 6.88 3.889 9.388z" transform="translate(-106 -135) translate(22 135) translate(84) translate(.207)"/>
                        <path fill="#3762CC" d="M67.46 109.743c-.411 0-.82-.156-1.134-.47L45.284 88.231c-.301-.3-.47-.71-.47-1.134 0-.426.169-.833.47-1.134l13.391-13.391c6.427-6.426 16.883-6.426 23.31 0 3.114 3.113 4.828 7.254 4.828 11.656 0 4.402-1.714 8.54-4.828 11.654l-13.391 13.391c-.314.314-.722.47-1.134.47zM48.685 87.097l18.775 18.775 12.258-12.258c2.507-2.507 3.887-5.84 3.887-9.386 0-3.546-1.38-6.88-3.887-9.388-5.177-5.175-13.599-5.175-18.775 0L48.685 87.097z" transform="translate(-106 -135) translate(22 135) translate(84) translate(.207)"/>
                        <path fill="#3762CC" d="M100.528 187.4H13.335c-3.46 0-6.273-2.815-6.273-6.275V14.527c0-3.46 2.813-6.274 6.273-6.274h14.402c.885 0 1.604.718 1.604 1.603v1.556c0 2.551 2.075 4.625 4.625 4.625h45.931c2.55 0 4.625-2.074 4.625-4.625V9.856c0-.885.719-1.603 1.604-1.603h14.402c3.458 0 6.275 2.814 6.275 6.274v166.598c0 3.46-2.817 6.275-6.275 6.275zM13.335 11.46c-1.692 0-3.065 1.376-3.065 3.067v166.598c0 1.691 1.373 3.067 3.065 3.067h87.193c1.692 0 3.068-1.376 3.068-3.067V14.527c0-1.69-1.376-3.067-3.068-3.067H87.73c-.025 4.297-3.529 7.784-7.833 7.784H33.966c-4.304 0-7.806-3.487-7.833-7.784H13.335z" transform="translate(-106 -135) translate(22 135) translate(84) translate(.207)"/>
                    </g>
                    <g>
                        <path fill="#F9A7A7" d="M73.913 37.501c0 20.11-16.301 36.412-36.413 36.412-20.11 0-36.413-16.302-36.413-36.412C1.087 17.389 17.39 1.087 37.5 1.087c20.112 0 36.413 16.302 36.413 36.414z" transform="translate(-106 -135) translate(22 135) translate(84) translate(73.913 125)"/>
                        <path fill="#E0EBFC" d="M66.304 37.5c0 15.908-12.896 28.804-28.805 28.804-15.907 0-28.803-12.896-28.803-28.803 0-15.91 12.896-28.805 28.803-28.805 15.91 0 28.805 12.896 28.805 28.805z" transform="translate(-106 -135) translate(22 135) translate(84) translate(73.913 125)"/>
                        <path fill="#4671C6" d="M37.5 40.217c-1.5 0-2.717-1.157-2.717-2.584V18.888c0-1.426 1.217-2.584 2.717-2.584s2.717 1.158 2.717 2.584v18.745c0 1.427-1.216 2.584-2.717 2.584z" transform="translate(-106 -135) translate(22 135) translate(84) translate(73.913 125)"/>
                        <path fill="#4671C6" d="M56.112 40.217H37.367c-1.427 0-2.584-1.216-2.584-2.717 0-1.5 1.157-2.717 2.584-2.717h18.745c1.427 0 2.584 1.217 2.584 2.717s-1.157 2.717-2.584 2.717z" transform="translate(-106 -135) translate(22 135) translate(84) translate(73.913 125)"/>
                        <path fill="#3762CC" d="M37.5 75C16.822 75 0 58.18 0 37.501 0 16.821 16.822 0 37.5 0 58.18 0 75 16.821 75 37.501 75 58.179 58.178 75 37.5 75zm0-72.09C18.427 2.91 2.91 18.428 2.91 37.5S18.427 72.092 37.5 72.092c19.073 0 34.59-15.518 34.59-34.591S56.573 2.91 37.5 2.91z" transform="translate(-106 -135) translate(22 135) translate(84) translate(73.913 125)"/>
                        <path fill="#3762CC" d="M36.955 67.391c-16.78 0-30.433-13.653-30.433-30.435 0-16.782 13.653-30.434 30.433-30.434 16.783 0 30.436 13.652 30.436 30.434 0 16.782-13.653 30.435-30.436 30.435zm0-57.933c-15.16 0-27.497 12.338-27.497 27.498 0 15.163 12.336 27.5 27.497 27.5 15.164 0 27.5-12.337 27.5-27.5 0-15.16-12.336-27.498-27.5-27.498z" transform="translate(-106 -135) translate(22 135) translate(84) translate(73.913 125)"/>
                    </g>
                </g>
            </g>
        </g>
    </g>
</svg>
