<svg xmlns="http://www.w3.org/2000/svg" width="208" height="200" viewBox="0 0 208 200">
    <g fill="none" fill-rule="evenodd">
        <g>
            <g>
                <g>
                    <path fill="#E0EBFC" d="M16.619 185.9L191.335 185.9 191.335 67.718 16.619 67.718z" transform="translate(-76 -135) translate(22 135) translate(54)"/>
                    <path fill="#6BDDDD" d="M203.693 185.9H4.261c-1.411 0-2.556 1.145-2.556 2.557v7.102c0 1.411 1.145 2.557 2.556 2.557h199.432c1.412 0 2.557-1.146 2.557-2.557v-7.102c0-1.412-1.145-2.557-2.557-2.557zM54.972 185.9h98.011v-9.66c0-1.411-1.145-2.556-2.557-2.556H57.528c-1.411 0-2.556 1.145-2.556 2.557v9.659z" transform="translate(-76 -135) translate(22 135) translate(54)"/>
                    <path fill="#4671C6" d="M74.148 173.684L133.807 173.684 133.807 96.081 74.148 96.081z" transform="translate(-76 -135) translate(22 135) translate(54)"/>
                    <path fill="#A4C9FF" d="M81.818 164.31v-58.854c0-.942.764-1.705 1.705-1.705h40.909c.94 0 1.704.763 1.704 1.705v58.853c0 .941-.763 1.705-1.704 1.705h-40.91c-.94 0-1.704-.764-1.704-1.705zM74.148 150.284H28.125c-1.411 0-2.557-1.145-2.557-2.557v-49.09c0-1.411 1.146-2.556 2.557-2.556h46.023v54.203z" transform="translate(-76 -135) translate(22 135) translate(54)"/>
                    <path fill="#3762CC" d="M124.432 167.718h-40.91c-1.88 0-3.408-1.53-3.408-3.409v-58.853c0-1.88 1.529-3.41 3.409-3.41h40.909c1.88 0 3.409 1.53 3.409 3.41v58.853c0 1.88-1.53 3.41-3.41 3.41zm-40.91-62.262v58.855l40.91-.002v-58.853h-40.91z" transform="translate(-76 -135) translate(22 135) translate(54)"/>
                    <path fill="#3762CC" d="M191.335 187.605H16.62c-.94 0-1.704-.764-1.704-1.705V67.718c0-.941.763-1.704 1.704-1.704h174.716c.941 0 1.705.763 1.705 1.704V185.9c0 .94-.764 1.705-1.705 1.705zm-173.011-3.41H189.63V69.423H18.324v114.772z" transform="translate(-76 -135) translate(22 135) translate(54)"/>
                    <path fill="#3762CC" d="M203.693 199.82H4.261c-2.35 0-4.261-1.91-4.261-4.26v-7.103c0-2.348 1.91-4.262 4.261-4.262h199.432c2.35 0 4.262 1.914 4.262 4.262v7.102c0 2.35-1.911 4.261-4.262 4.261zM4.261 187.605c-.47 0-.852.383-.852.852v7.102c0 .47.382.852.852.852h199.432c.47 0 .852-.381.852-.852v-7.102c0-.469-.381-.852-.852-.852H4.261z" transform="translate(-76 -135) translate(22 135) translate(54)"/>
                    <path fill="#3762CC" d="M152.983 187.605H54.972c-.941 0-1.705-.764-1.705-1.705v-9.66c0-2.347 1.91-4.26 4.261-4.26h92.898c2.35 0 4.262 1.913 4.262 4.26v9.66c0 .94-.764 1.705-1.705 1.705zm-96.307-3.41h94.602v-7.954c0-.469-.381-.852-.852-.852H57.528c-.47 0-.852.383-.852.852v7.954z" transform="translate(-76 -135) translate(22 135) translate(54)"/>
                    <path fill="#6BDDDD" d="M197.727 75.171h-187.5c-1.882 0-3.409-1.525-3.409-3.41V50.039c0-1.882 1.527-3.41 3.41-3.41h187.5c1.881 0 3.408 1.528 3.408 3.41v21.724c0 1.884-1.527 3.409-3.409 3.409z" transform="translate(-76 -135) translate(22 135) translate(54)"/>
                    <path fill="#3762CC" d="M197.727 76.876h-187.5c-2.82 0-5.113-2.293-5.113-5.114V50.038c0-2.821 2.292-5.114 5.113-5.114h187.5c2.821 0 5.114 2.293 5.114 5.114v21.724c0 2.821-2.293 5.114-5.114 5.114zm-187.5-28.543c-.94 0-1.704.764-1.704 1.705v21.724c0 .94.763 1.704 1.704 1.704h187.5c.941 0 1.705-.763 1.705-1.704V50.038c0-.941-.764-1.705-1.705-1.705h-187.5z" transform="translate(-76 -135) translate(22 135) translate(54)"/>
                    <path fill="#A4C9FF" d="M148.722 46.628c0 24.712-20.033 44.745-44.745 44.745-24.711 0-44.744-20.033-44.744-44.745 0-24.711 20.033-44.744 44.744-44.744 11.868 0 23.25 4.714 31.639 13.104 8.391 8.392 13.106 19.773 13.106 31.64z" transform="translate(-76 -135) translate(22 135) translate(54)"/>
                    <path fill="#4671C6" d="M139.347 46.628c0 19.534-15.836 35.37-35.37 35.37-19.533 0-35.369-15.836-35.369-35.37 0-19.533 15.836-35.369 35.37-35.369 9.379 0 18.377 3.727 25.008 10.36 6.634 6.633 10.36 15.63 10.36 25.01z" transform="translate(-76 -135) translate(22 135) translate(54)"/>
                    <path fill="#3762CC" d="M103.977 93.077c-25.612 0-46.449-20.838-46.449-46.449C57.528 21.016 78.365.18 103.978.18c25.612 0 46.448 20.836 46.448 46.448 0 25.611-20.836 46.45-46.449 46.45zm0-89.488c-23.733 0-43.04 19.307-43.04 43.04 0 23.732 19.307 43.04 43.04 43.04s43.04-19.308 43.04-43.04c0-23.733-19.307-43.04-43.04-43.04zM133.807 175.389h-59.66c-.94 0-1.704-.764-1.704-1.705V96.081c0-.942.764-1.705 1.705-1.705h59.659c.94 0 1.704.763 1.704 1.705v77.603c0 .941-.763 1.705-1.704 1.705zm-57.955-3.41h56.25V97.786h-56.25v74.195z" transform="translate(-76 -135) translate(22 135) translate(54)"/>
                    <path fill="#3762CC" d="M74.148 151.989H28.125c-2.35 0-4.261-1.911-4.261-4.262v-49.09c0-2.35 1.91-4.26 4.261-4.26h46.023c.94 0 1.704.762 1.704 1.704v54.203c0 .941-.763 1.705-1.704 1.705zM28.125 97.785c-.47 0-.852.381-.852.853v49.09c0 .47.382.852.852.852h44.318V97.785H28.125z" transform="translate(-76 -135) translate(22 135) translate(54)"/>
                    <path fill="#A4C9FF" d="M179.83 150.284h-46.023V96.081h46.023c1.41 0 2.556 1.145 2.556 2.556v49.09c0 1.412-1.145 2.557-2.556 2.557z" transform="translate(-76 -135) translate(22 135) translate(54)"/>
                    <path fill="#3762CC" d="M179.83 151.989h-46.023c-.941 0-1.705-.764-1.705-1.705V96.081c0-.942.764-1.705 1.705-1.705h46.023c2.35 0 4.26 1.91 4.26 4.261v49.09c0 2.35-1.91 4.262-4.26 4.262zm-44.319-3.41h44.319c.47 0 .852-.381.852-.852v-49.09c0-.47-.382-.852-.852-.852H135.51v50.795z" transform="translate(-76 -135) translate(22 135) translate(54)"/>
                    <path fill="#E0EBFC" d="M91.584 140.963c-.655 0-1.31-.252-1.809-.751-.999-.998-.999-2.617 0-3.615l11.754-11.752c.997-.999 2.617-.999 3.616 0 .998.998.998 2.616 0 3.615L93.39 140.212c-.5.5-1.154.75-1.806.75zM104.619 140.963c-.655 0-1.31-.252-1.807-.751-.999-.998-.999-2.617 0-3.615l11.752-11.752c1-.999 2.617-.999 3.616 0 .998.998.998 2.616 0 3.615l-11.753 11.752c-.499.5-1.154.75-1.808.75zM145.703 131.576c-.655 0-1.31-.248-1.809-.748-.999-.998-.999-2.619 0-3.617l11.754-11.752c.997-1 2.617-1 3.616 0 .998.998.998 2.616 0 3.615l-11.754 11.754c-.5.5-1.154.748-1.807.748zM158.738 131.576c-.654 0-1.31-.248-1.807-.748-.999-.998-.999-2.619 0-3.617l11.753-11.752c.998-1 2.616-1 3.615 0 .999.998.999 2.616 0 3.615l-11.752 11.754c-.5.5-1.154.748-1.809.748zM37.465 131.576c-.655 0-1.31-.248-1.81-.748-.998-.998-.998-2.619 0-3.617l11.755-11.752c.996-1 2.617-1 3.616 0 .998.998.998 2.616 0 3.615L39.27 130.828c-.5.5-1.154.748-1.806.748zM50.5 131.576c-.655 0-1.31-.248-1.807-.748-1-.998-1-2.619 0-3.617l11.752-11.752c.999-1 2.616-1 3.615 0 1 .998 1 2.616 0 3.615l-11.752 11.754c-.499.5-1.154.748-1.809.748z" transform="translate(-76 -135) translate(22 135) translate(54)"/>
                    <path fill="#F9A7A7" d="M92.702 36.224l16.462 16.462L98.688 63.16c-4.545 4.546-11.916 4.546-16.461 0-4.546-4.545-4.546-11.916 0-16.462l10.475-10.475z" transform="translate(-76 -135) translate(22 135) translate(54)"/>
                    <path fill="#A4C9FF" d="M119.664 25.723c4.546 4.546 4.546 11.917 0 16.462l-10.489 10.487L92.714 36.21l10.489-10.487c4.545-4.547 11.916-4.547 16.461 0z" transform="translate(-76 -135) translate(22 135) translate(54)"/>
                    <path fill="#3762CC" d="M90.459 68.275c-3.565 0-6.916-1.39-9.437-3.909-5.203-5.202-5.203-13.669 0-18.872L91.497 35.02c.666-.666 1.744-.666 2.41 0l16.462 16.46c.32.319.5.754.5 1.205 0 .452-.18.885-.5 1.205L99.893 64.366c-2.52 2.52-5.872 3.909-9.434 3.909zm2.243-29.64l-9.27 9.27c-3.873 3.873-3.873 10.176 0 14.051 1.878 1.878 4.372 2.91 7.027 2.91 2.654 0 5.149-1.032 7.026-2.91l9.269-9.27-14.052-14.052z" transform="translate(-76 -135) translate(22 135) translate(54)"/>
                    <path fill="#3762CC" d="M109.177 54.377c-.437 0-.872-.165-1.205-.5L91.51 37.416c-.664-.666-.664-1.745 0-2.41l10.489-10.488c5.202-5.204 13.669-5.204 18.871 0 5.205 5.203 5.205 13.67 0 18.872l-10.487 10.487c-.332.333-.77.5-1.205.5zM95.124 36.21l14.051 14.052 9.284-9.282c3.873-3.875 3.873-10.178 0-14.051-3.873-3.873-10.176-3.876-14.051 0l-9.284 9.281z" transform="translate(-76 -135) translate(22 135) translate(54)"/>
                    <path fill="#E0EBFC" d="M129.135 53.705c0 7.55-6.121 13.669-13.67 13.669-7.55 0-13.672-6.119-13.672-13.67 0-7.55 6.122-13.672 13.672-13.672 7.549 0 13.67 6.121 13.67 13.673z" transform="translate(-76 -135) translate(22 135) translate(54)"/>
                    <path fill="#3762CC" d="M115.465 69.083c-8.478 0-15.376-6.898-15.376-15.377 0-8.48 6.898-15.378 15.376-15.378 8.481 0 15.376 6.898 15.376 15.378 0 8.479-6.897 15.377-15.376 15.377zm0-27.344c-6.599 0-11.967 5.369-11.967 11.967 0 6.6 5.368 11.968 11.967 11.968 6.6 0 11.967-5.369 11.967-11.968 0-6.598-5.366-11.967-11.967-11.967z" transform="translate(-76 -135) translate(22 135) translate(54)"/>
                    <path fill="#F9A7A7" d="M122.09 51.383h-4.205v-4.204c0-.433-.35-.784-.782-.784h-3.278c-.433 0-.781.351-.781.784v4.204h-4.206c-.433 0-.783.35-.783.783v3.278c0 .433.35.782.783.782h4.206v4.205c0 .433.348.784.781.784h3.278c.433 0 .782-.35.782-.784v-4.203h4.205c.433 0 .784-.35.784-.784v-3.278c0-.432-.35-.783-.784-.783z" transform="translate(-76 -135) translate(22 135) translate(54)"/>
                </g>
            </g>
        </g>
    </g>
</svg>
