<svg xmlns="http://www.w3.org/2000/svg" width="139" height="170" viewBox="0 0 139 170">
    <g fill="none" fill-rule="evenodd">
        <g>
            <g>
                <g>
                    <path fill="#6BDDDD" d="M92.43 33.062v-10.2H16.604v10.2l-11.19 5.106c-1.869.852-3.07 2.734-3.07 4.808v101.23c0 2.914 2.336 5.277 5.217 5.277h93.91c2.881 0 5.218-2.363 5.218-5.276V42.977c0-2.075-1.202-3.955-3.074-4.81L92.43 33.063z" transform="translate(-111 -150) translate(22 150) translate(89)"/>
                    <path fill="#E0EBFC" d="M2.345 119L106.69 119 106.69 61.552 2.345 61.552z" transform="translate(-111 -150) translate(22 150) translate(89)"/>
                    <path fill="#F9A7A7" d="M71.759 83.569H60.446V71.925c0-1.196-.943-2.166-2.106-2.166h-8.818c-1.16 0-2.103.97-2.103 2.166v11.644H36.106c-1.163 0-2.106.97-2.106 2.169v9.076c0 1.198.943 2.169 2.106 2.169H47.42v11.644c0 1.196.942 2.166 2.103 2.166h8.818c1.163 0 2.106-.97 2.106-2.166V96.983H71.76c1.163 0 2.103-.97 2.103-2.169v-9.076c0-1.199-.94-2.17-2.103-2.17z" transform="translate(-111 -150) translate(22 150) translate(89)"/>
                    <path fill="#3762CC" d="M101.696 150.655H7.339c-4.04 0-7.328-3.285-7.339-7.327v-.008V42.622c0-2.883 1.696-5.51 4.32-6.696l10.008-4.52v-8.79c0-1.158.94-2.099 2.097-2.099H92.61c1.158 0 2.097.94 2.097 2.1v8.788l10.006 4.521c2.61 1.181 4.304 3.783 4.322 6.647v100.736c0 4.05-3.292 7.346-7.338 7.346zM4.194 143.31c0 1.735 1.411 3.148 3.145 3.148h94.357c1.733 0 3.145-1.413 3.145-3.148V42.622c0-1.235-.726-2.36-1.85-2.87l-11.244-5.078c-.751-.338-1.234-1.087-1.234-1.913v-8.046H18.522v8.046c0 .826-.483 1.575-1.234 1.913L6.044 39.752c-1.124.51-1.853 1.635-1.853 2.87V143.31h.003z" transform="translate(-111 -150) translate(22 150) translate(89)"/>
                    <path fill="#4671C6" d="M102.516 2.931H6.519c-2.304 0-4.174 1.849-4.174 4.127v17.54c0 2.277 1.87 4.126 4.174 4.126h95.997c2.304 0 4.174-1.849 4.174-4.127V7.057c0-2.277-1.87-4.126-4.174-4.126z" transform="translate(-111 -150) translate(22 150) translate(89)"/>
                    <path fill="#3762CC" d="M102.744 31.069H6.29c-3.47 0-6.29-2.828-6.29-6.307V6.893C0 3.413 2.82.586 6.29.586h96.454c3.47 0 6.29 2.828 6.29 6.307v17.87c0 3.478-2.82 6.306-6.29 6.306zM6.29 4.791c-1.157 0-2.096.942-2.096 2.102v17.87c0 1.16.939 2.101 2.096 2.101h96.454c1.155 0 2.097-.941 2.097-2.102V6.893c0-1.16-.942-2.102-2.097-2.102H6.29z" transform="translate(-111 -150) translate(22 150) translate(89)"/>
                    <path fill="#6BDDDD" d="M87.931 141.276H64.483v-14.444c0-6.268 5.249-11.35 11.724-11.35 6.475 0 11.724 5.082 11.724 11.35v14.444z" transform="translate(-111 -150) translate(22 150) translate(89)"/>
                    <path fill="#E0EBFC" d="M76.207 167.069c-6.475 0-11.724-5.078-11.724-11.342v-14.451H87.93v14.451c0 6.264-5.249 11.342-11.724 11.342z" transform="translate(-111 -150) translate(22 150) translate(89)"/>
                    <path fill="#3762CC" d="M87.03 143.62H64.211c-1.145 0-2.074-.941-2.074-2.102v-14.715c0-7.536 6.047-13.665 13.483-13.665 7.432 0 13.482 6.129 13.482 13.665v14.715c0 1.16-.929 2.103-2.074 2.103zm-20.744-4.204h18.669v-12.613c0-5.217-4.187-9.46-9.334-9.46-5.148 0-9.335 4.243-9.335 9.46v12.613z" transform="translate(-111 -150) translate(22 150) translate(89)"/>
                    <path fill="#3762CC" d="M75.62 169.414c-7.435 0-13.482-6.128-13.482-13.657v-14.725c0-1.16.93-2.101 2.074-2.101H87.03c1.145 0 2.074.941 2.074 2.101v14.725c0 7.53-6.05 13.657-13.482 13.657zm-9.334-26.28v12.623c0 5.211 4.187 9.455 9.335 9.455 5.147 0 9.334-4.244 9.334-9.455v-12.624H66.286z" transform="translate(-111 -150) translate(22 150) translate(89)"/>
                    <path fill="#A4C9FF" d="M137.172 148.31c0 11.008-8.924 19.931-19.932 19.931-11.004 0-19.93-8.923-19.93-19.931 0-11.008 8.926-19.93 19.93-19.93 11.008 0 19.932 8.922 19.932 19.93z" transform="translate(-111 -150) translate(22 150) translate(89)"/>
                    <path fill="#3762CC" d="M116.656 169.414c-11.96 0-21.69-9.73-21.69-21.69s9.73-21.69 21.69-21.69c11.959 0 21.689 9.73 21.689 21.69s-9.73 21.69-21.69 21.69zm0-39.202c-9.657 0-17.512 7.856-17.512 17.512s7.855 17.512 17.512 17.512c9.656 0 17.51-7.856 17.51-17.512s-7.854-17.512-17.51-17.512z" transform="translate(-111 -150) translate(22 150) translate(89)"/>
                </g>
            </g>
        </g>
    </g>
</svg>
